<svg xmlns="http://www.w3.org/2000/svg" width="28" height="28" viewBox="0 0 28 28">
  <defs>
    <linearGradient id="mh" x1="0" y1="0" x2="1" y2="1">
      <stop offset="0" stop-color="#e2e4ff"/>
      <stop offset=".32" stop-color="#6f7bf7"/>
      <stop offset=".64" stop-color="#9a5cff"/>
      <stop offset="1" stop-color="#3a1a63"/>
    </linearGradient>
    <linearGradient id="rimh" x1="0" y1="0" x2="1" y2="1">
      <stop offset="0" stop-color="#ffffff"/>
      <stop offset="1" stop-color="#c3b5ff"/>
    </linearGradient>
  </defs>
  <path d="M8.7 13 L8.7 4.3 Q8.7 2.6 10.35 2.6 Q12 2.6 12 4.3 L12 11 L12.7 11 L12.7 9.7 Q12.7 8.3 14.1 8.3 Q15.5 8.3 15.5 9.7 L15.5 11.2 L16.2 11.2 L16.2 10.2 Q16.2 8.9 17.6 8.9 Q19 8.9 19 10.2 L19 11.9 Q21.4 12 21.4 14.8 L21.4 19 Q21.4 23.4 17 23.4 L14 23.4 Q11.4 23.4 10.2 21.4 L6.7 16.8 Q5.8 15.3 7.4 14.6 L8.7 15.2 Z"
        fill="none" stroke="#140a26" stroke-width="2.6" stroke-linejoin="round"/>
  <path d="M8.7 13 L8.7 4.3 Q8.7 2.6 10.35 2.6 Q12 2.6 12 4.3 L12 11 L12.7 11 L12.7 9.7 Q12.7 8.3 14.1 8.3 Q15.5 8.3 15.5 9.7 L15.5 11.2 L16.2 11.2 L16.2 10.2 Q16.2 8.9 17.6 8.9 Q19 8.9 19 10.2 L19 11.9 Q21.4 12 21.4 14.8 L21.4 19 Q21.4 23.4 17 23.4 L14 23.4 Q11.4 23.4 10.2 21.4 L6.7 16.8 Q5.8 15.3 7.4 14.6 L8.7 15.2 Z"
        fill="url(#mh)" stroke="url(#rimh)" stroke-width="1.1" stroke-linejoin="round"/>
  <path d="M10.3 4.6 L10.3 11.5" stroke="#ffffff" stroke-width="0.8" stroke-linecap="round" opacity="0.6"/>
</svg>
